<svg width="46" height="47" viewBox="0 0 46 47" fill="none" xmlns="http://www.w3.org/2000/svg">
<mask id="mask0_1_201" style="mask-type:alpha" maskUnits="userSpaceOnUse" x="0" y="0" width="46" height="47">
<rect x="0.343231" y="0.588104" width="45.5286" height="45.5286" fill="#D9D9D9"/>
</mask>
<g mask="url(#mask0_1_201)">
<path d="M18.365 31.889L31.6442 23.3524L18.365 14.8158V31.889ZM23.1075 42.3227C20.4833 42.3227 18.0172 41.8247 15.7092 40.8288C13.4011 39.8328 11.3934 38.4812 9.6861 36.7739C7.97877 35.0666 6.62714 33.0589 5.63121 30.7508C4.63527 28.4428 4.1373 25.9766 4.1373 23.3524C4.1373 20.7282 4.63527 18.2621 5.63121 15.954C6.62714 13.646 7.97877 11.6383 9.6861 9.93097C11.3934 8.22365 13.4011 6.87202 15.7092 5.87608C18.0172 4.88014 20.4833 4.38217 23.1075 4.38217C25.7318 4.38217 28.1979 4.88014 30.5059 5.87608C32.814 6.87202 34.8217 8.22365 36.529 9.93097C38.2363 11.6383 39.588 13.646 40.5839 15.954C41.5798 18.2621 42.0778 20.7282 42.0778 23.3524C42.0778 25.9766 41.5798 28.4428 40.5839 30.7508C39.588 33.0589 38.2363 35.0666 36.529 36.7739C34.8217 38.4812 32.814 39.8328 30.5059 40.8288C28.1979 41.8247 25.7318 42.3227 23.1075 42.3227Z" fill="#1C1B1F"/>
</g>
</svg>
