<svg width="39" height="39" viewBox="0 0 39 39" fill="none" xmlns="http://www.w3.org/2000/svg">
<mask id="mask0_1_234" style="mask-type:alpha" maskUnits="userSpaceOnUse" x="0" y="0" width="39" height="39">
<rect x="0.970253" y="0.382141" width="37.9405" height="37.9405" fill="#D9D9D9"/>
</mask>
<g mask="url(#mask0_1_234)">
<path d="M26.2639 31.9992C24.9465 31.9992 23.8268 31.5382 22.9046 30.616C21.9824 29.6938 21.5214 28.5741 21.5214 27.2567C21.5214 25.9393 21.9824 24.8195 22.9046 23.8974C23.8268 22.9752 24.9465 22.5141 26.2639 22.5141C26.5537 22.5141 26.8304 22.5339 27.0939 22.5734C27.3574 22.6129 27.6077 22.6985 27.8448 22.8303V9.86728H35.7491V13.029H31.0065V27.2567C31.0065 28.5741 30.5454 29.6938 29.6232 30.616C28.7011 31.5382 27.5813 31.9992 26.2639 31.9992ZM5.71282 25.6758V22.5141H18.3597V25.6758H5.71282ZM5.71282 19.3524V16.1907H24.6831V19.3524H5.71282ZM5.71282 13.029V9.86728H24.6831V13.029H5.71282Z" fill="#1C1B1F"/>
</g>
</svg>
