<svg width="38" height="39" viewBox="0 0 38 39" fill="none" xmlns="http://www.w3.org/2000/svg">
<mask id="mask0_1_228" style="mask-type:alpha" maskUnits="userSpaceOnUse" x="0" y="0" width="38" height="39">
<rect x="0.214199" y="0.588257" width="37.7006" height="37.7006" fill="#D9D9D9"/>
</mask>
<g mask="url(#mask0_1_228)">
<path d="M22.2062 33.1443V29.9241C24.5625 29.2434 26.4606 27.9343 27.9006 25.9969C29.3405 24.0595 30.0605 21.8603 30.0605 19.3993C30.0605 16.9383 29.3405 14.7391 27.9006 12.8017C26.4606 10.8643 24.5625 9.55526 22.2062 8.87456V5.6543C25.4527 6.38736 28.0969 8.03022 30.1391 10.5829C32.1812 13.1355 33.2022 16.0743 33.2022 19.3993C33.2022 22.7243 32.1812 25.6631 30.1391 28.2158C28.0969 30.7684 25.4527 32.4113 22.2062 33.1443ZM4.92677 24.1512V14.726H11.2102L19.0645 6.87171V32.0055L11.2102 24.1512H4.92677ZM22.2062 25.722V13.0766C23.4367 13.6526 24.3989 14.5166 25.0927 15.6685C25.7865 16.8205 26.1334 18.0772 26.1334 19.4386C26.1334 20.7738 25.7865 22.0109 25.0927 23.1497C24.3989 24.2886 23.4367 25.146 22.2062 25.722Z" fill="#1C1B1F"/>
</g>
</svg>
